<svg xmlns="http://www.w3.org/2000/svg" viewBox="0 0 70.9 71.27"><defs><style>.cls-1{fill:#00afd4;}</style></defs><g id="Layer_2" data-name="Layer 2"><g id="Layer_1-2" data-name="Layer 1"><path class="cls-1" d="M43.4,41.26,60.55,24.07,37.13.6a2,2,0,0,0-2.89,0L20.46,14.41l-.09.08L.68,34.22a2.32,2.32,0,0,0,0,3.29l7.53,7.54L27.69,25.53Z"/><path class="cls-1" d="M70.22,33.76l-7.53-7.55L45.53,43.41l9.17,9.18L70.22,37A2.33,2.33,0,0,0,70.22,33.76Z"/><path class="cls-1" d="M10.34,47.2,33.77,70.67a2,2,0,0,0,2.89,0L52.37,54.92,27.5,30Z"/></g></g></svg>